<svg width="14" height="14" viewBox="0 0 14 14" fill="none" xmlns="http://www.w3.org/2000/svg">
<path d="M7.00017 0.333252C5.68162 0.333252 4.39269 0.724245 3.29636 1.45679C2.20004 2.18933 1.34555 3.23052 0.840969 4.4487C0.336385 5.66687 0.204362 7.00731 0.461597 8.30052C0.718832 9.59373 1.35377 10.7816 2.28612 11.714C3.21847 12.6463 4.40636 13.2813 5.69956 13.5385C6.99277 13.7957 8.33321 13.6637 9.55139 13.1591C10.7696 12.6545 11.8108 11.8 12.5433 10.7037C13.2758 9.60739 13.6668 8.31846 13.6668 6.99992C13.6668 6.12444 13.4944 5.25753 13.1594 4.4487C12.8243 3.63986 12.3333 2.90493 11.7142 2.28587C11.0952 1.66682 10.3602 1.17575 9.55139 0.840722C8.74255 0.50569 7.87564 0.333252 7.00017 0.333252ZM10.7842 5.82459L6.78417 9.49125C6.65752 9.60738 6.49093 9.67012 6.31915 9.6664C6.14737 9.66267 5.98365 9.59276 5.86217 9.47125L3.86217 7.47125C3.79849 7.40975 3.7477 7.33619 3.71276 7.25486C3.67783 7.17352 3.65943 7.08604 3.65867 6.99752C3.6579 6.909 3.67476 6.82121 3.70828 6.73928C3.7418 6.65735 3.79131 6.58292 3.8539 6.52032C3.9165 6.45773 3.99093 6.40823 4.07286 6.3747C4.15479 6.34118 4.24258 6.32432 4.3311 6.32508C4.41962 6.32585 4.5071 6.34424 4.58843 6.37918C4.66977 6.41412 4.74333 6.46491 4.80483 6.52859L6.3535 8.07725L9.88283 4.84192C10.0131 4.72239 10.1856 4.65953 10.3623 4.66716C10.5389 4.67478 10.7053 4.75228 10.8248 4.88259C10.9444 5.0129 11.0072 5.18535 10.9996 5.36201C10.992 5.53867 10.9145 5.70506 10.7842 5.82459Z" fill="#7AD111"/>
</svg>
