<svg width="80" height="93" viewBox="0 0 80 93" fill="none" xmlns="http://www.w3.org/2000/svg">
<g clip-path="url(#clip0_182_867)">
<path d="M40 92.9998C62.0914 92.9998 80 75.0645 80 52.9401C80 30.8157 62.0914 12.8804 40 12.8804C17.9086 12.8804 0 30.8157 0 52.9401C0 75.0645 17.9086 92.9998 40 92.9998Z" fill="#FCFBD9"/>
<path d="M51.1276 72.917C51.0063 74.5705 50.698 79.7316 53.5127 83.9068C53.9827 84.6052 55.1155 86.249 56.1578 86.0484C57.437 85.7995 57.9147 82.9151 58.0303 81.7594C58.3983 78.0395 57.8107 66.2279 56.2984 50.3047C54.5934 55.0645 51.7942 63.8393 51.1276 72.917Z" fill="#081F2D" stroke="#081F2D" stroke-width="2.4916" stroke-miterlimit="10" stroke-linecap="round" stroke-linejoin="round"/>
<path d="M58.2749 77.206C51.4185 76.4651 45.9973 76.8336 42.3465 77.2948C37.1508 77.9488 32.5387 79.174 26.2853 77.7057C20.5713 76.3667 20.0395 74.3139 19.9567 73.8991C19.7352 72.7974 20.3459 71.8269 20.6291 71.3696C20.9219 70.9047 21.2898 70.486 21.7195 70.1175C19.2901 70.1387 17.0958 69.5773 16.0921 68.217C15.6664 67.644 15.1347 66.496 15.2676 65.1609C15.4468 63.2855 16.8319 62.1221 17.2076 61.8192C15.6991 61.2925 14.5278 60.5053 14.0308 59.4615C13.6455 58.6531 13.7418 57.862 13.7591 57.7405C14.156 54.8387 18.8432 53.5904 19.2323 53.4959C17.038 52.3614 15.3735 50.5902 15.1809 48.5894C15.0518 47.262 15.5912 46.0388 16.2809 45.0548C15.9053 44.0419 16.2019 43.0502 16.227 42.9653C17.5351 39.0718 26.5357 38.3309 31.6833 38.603C34.0414 38.7284 40.8728 39.1721 47.6695 43.5306C51.9887 46.2973 52.5031 48.2151 57.1729 50.8082L58.2749 77.206Z" fill="url(#paint0_linear_182_867)"/>
<path d="M47.4325 63.708C46.1937 63.2546 44.3308 62.3921 42.5199 60.7367C39.6513 58.1147 38.5898 55.0412 38.1987 53.627" stroke="#081F2D" stroke-miterlimit="10"/>
<path d="M80.0002 52.9402L77.7905 91.1245C70.4986 89.1739 65.3491 88.1398 61.9623 87.3873C59.9106 86.932 57.8704 86.4882 55.8418 86.058C55.8572 86.058 55.9015 86.0619 55.9497 86.0599C55.9882 86.0638 56.0267 86.0599 56.0653 86.058C56.098 86.0561 56.1327 86.0522 56.1597 86.0445C57.435 85.7995 57.9166 82.915 58.0303 81.7555C58.4002 78.0356 57.8107 66.2259 56.3003 50.3008L80.0002 52.9402Z" fill="#B29ADC"/>
<path d="M61.3936 87.2615C63.2179 84.8826 64.1831 81.9557 64.1292 78.9555L63.6283 51.1184" stroke="#081F2D" stroke-miterlimit="10"/>
<path d="M53.5122 83.9068C53.9823 84.6052 55.115 86.249 56.1573 86.0484C57.4365 85.7995 57.9142 82.9151 58.0298 81.7594C58.3978 78.0395 57.8102 66.2279 56.2979 50.3047" stroke="#081F2D" stroke-miterlimit="10" stroke-linecap="round" stroke-linejoin="round"/>
<path d="M31.2575 3.57699C27.0231 0.462968 21.5942 -0.625202 16.3059 0.341417L16.0786 0.380005C10.8655 1.27331 6.19756 4.08635 3.28083 8.3715C-0.847666 14.4394 -0.899682 22.6258 2.72022 28.6744C6.16096 34.4336 12.7303 37.92 19.8873 38.0242C20.8332 44.5763 23.303 62.3729 23.6324 64.3776C23.8925 65.9481 25.4125 66.9803 26.9672 66.6407C26.9865 66.6369 27.0038 66.633 27.0231 66.6291C28.493 66.3069 29.4389 64.8696 29.1557 63.3897C28.8282 61.6803 26.0444 41.8115 25.3143 37.1212C28.283 36.0427 30.9281 34.3834 33.0761 32.3016C35.831 29.6294 37.7691 26.2607 38.5262 22.5409C39.9326 15.6279 37.1661 7.92581 31.2575 3.57699ZM26.867 30.461C25.1544 31.5607 23.4032 32.155 21.7888 32.4405C20.1724 32.7087 18.323 32.7338 16.3425 32.2649C11.3644 31.0842 6.60983 27.0093 5.66584 21.3389C4.97808 17.1926 6.48075 13.1023 8.90237 10.4379C11.0003 8.12261 13.9594 6.65049 17.2942 6.13535C20.6155 5.51023 23.8906 5.91347 26.6378 7.39716C29.8088 9.10466 32.5791 12.4618 33.3092 16.6022C34.3052 22.263 31.1728 27.6885 26.867 30.461Z" fill="#C3E1A1"/>
<path d="M26.867 30.4607C25.1543 31.5605 23.4031 32.1547 21.7887 32.4403C20.1724 32.7085 18.3229 32.7336 16.3425 32.2647C11.3644 31.0839 6.60977 27.0091 5.66579 21.3386C4.97802 17.1924 6.4807 13.1021 8.90231 10.4376C11.0003 8.12238 13.9594 6.65026 17.2942 6.13511C20.6155 5.51 23.8905 5.91324 26.6377 7.39693C29.8087 9.10443 32.579 12.4616 33.3092 16.602C34.3052 22.2628 31.1727 27.6882 26.867 30.4607Z" fill="white" stroke="#081F2D" stroke-miterlimit="10" stroke-linecap="round" stroke-linejoin="round"/>
<path d="M14.6413 13.2453C15.2674 12.2941 16.2538 11.6574 17.5985 11.3333C18.9432 11.0092 20.1126 11.1211 21.1066 11.669C22.1007 12.217 22.7596 13.1701 23.0871 14.5303C23.4127 15.8905 23.2605 16.9767 22.6286 17.789C21.9967 18.6013 20.914 19.1994 19.3786 19.5814L19.9623 22.0105L17.8162 22.5276L16.8606 18.5453L17.8142 18.3157C19.0626 18.0283 19.9488 17.6443 20.4709 17.16C20.993 16.6758 21.1336 15.9368 20.8947 14.9412C20.7252 14.237 20.3919 13.7354 19.891 13.4344C19.3901 13.1334 18.7833 13.0697 18.0685 13.2415C17.3538 13.4132 16.8356 13.7412 16.5177 14.2254C16.1998 14.7097 16.1228 15.2962 16.2885 15.987L14.1597 16.4983C13.8533 15.2808 14.0132 14.1965 14.6413 13.2453ZM18.9297 26.4693C18.6003 26.2686 18.3903 25.9754 18.2978 25.5895C18.2053 25.2055 18.2593 24.8486 18.4615 24.5187C18.6619 24.1888 18.9528 23.9804 19.3304 23.8878C19.708 23.7971 20.0605 23.8531 20.39 24.0537C20.7194 24.2563 20.9294 24.5496 21.0219 24.9335C21.1143 25.3194 21.0604 25.6763 20.8581 26.0043C20.6558 26.3342 20.3669 26.5426 19.9893 26.6352C19.6117 26.7278 19.2572 26.6719 18.9297 26.4693Z" fill="black"/>
<path d="M28.8439 75.6372C29.8842 75.122 32.8009 73.6788 32.8607 71.4099C32.8876 70.343 32.2731 69.5596 32.1999 69.4709C30.1038 66.8817 22.9469 67.6843 20.6312 71.3713C20.3923 71.7514 19.7219 72.7508 19.9569 73.8969C20.2671 75.4095 21.9316 76.1504 22.3747 76.3472C25.0236 77.5279 27.8151 76.1465 28.8439 75.6372Z" fill="url(#paint1_linear_182_867)"/>
<path d="M28.7551 61.2205C29.0556 61.2996 29.5758 61.4501 30.094 61.8649C31.3385 62.8624 31.7739 64.7532 31.5331 65.8124C30.6642 69.6422 18.8644 71.9652 16.0922 68.2145C15.6414 67.6048 15.1386 66.4433 15.2676 65.1583C15.4468 63.3544 16.7857 62.189 17.2115 61.8205C20.4403 59.0113 25.4242 60.3368 28.7551 61.2205Z" fill="url(#paint2_linear_182_867)"/>
<path d="M27.8091 54.1459C28.9593 54.6784 30.4851 55.4135 30.905 56.9088C31.2537 58.1532 30.6662 59.3108 30.5544 59.5192C28.3043 63.7311 15.9823 63.5536 14.0289 59.4652C13.9499 59.3012 13.6378 58.6047 13.7591 57.7442C14.1348 55.0604 18.3018 53.7832 19.2323 53.4976C19.5656 53.3934 23.6344 52.2127 27.8091 54.1459Z" fill="url(#paint3_linear_182_867)"/>
<path d="M21.5518 45.6026C22.0989 45.4444 25.3779 44.5607 28.1135 46.5152C28.4179 46.7332 31.2518 48.815 30.7451 51.2345C30.2866 53.4282 27.4084 54.3157 26.9441 54.4585C22.3051 55.8882 15.5816 52.7375 15.1809 48.5874C15.1404 48.1667 15.1674 47.7577 15.2425 47.3622C15.3581 46.766 15.5893 46.2026 15.8763 45.6875" fill="url(#paint4_linear_182_867)"/>
<path d="M28.8472 75.6369C31.2553 74.7571 32.8312 73.1191 32.8639 71.4097C32.8658 71.2688 32.8716 70.2964 32.2031 69.4706C31.629 68.7626 30.6773 68.3072 29.5484 68.0969" stroke="#081F2D" stroke-miterlimit="10"/>
<path d="M28.7584 61.2202C29.1302 61.3128 29.6253 61.4923 30.0973 61.8646C31.3881 62.8872 31.7715 64.7838 31.5364 65.8121C30.9161 68.5403 24.7494 70.5044 20.251 70.0529" stroke="#081F2D" stroke-miterlimit="10"/>
<path d="M27.8128 54.1455C28.1519 54.2536 30.3866 54.9944 30.9087 56.9084C31.2439 58.1354 30.7083 59.239 30.5581 59.5188C28.672 63.0476 19.7157 63.4952 15.7124 61.1433" stroke="#081F2D" stroke-miterlimit="10"/>
<path d="M29.3193 47.572C30.1535 48.4518 31.0532 49.7831 30.7488 51.234C30.2903 53.4277 27.4121 54.3152 26.9478 54.458C23.9694 55.3764 20.128 54.404 17.6562 52.4919" stroke="#081F2D" stroke-miterlimit="10"/>
<path d="M39.6187 51.0317C38.2566 49.7969 36.0566 48.1762 33.0666 47.5993C30.2135 47.0495 29.2695 47.9582 24.5226 47.7942C21.2148 47.6804 17.4697 47.5067 16.3927 45.3265C15.8514 44.2287 16.1982 43.0595 16.229 42.9669C17.5352 39.0734 26.5358 38.3325 31.6815 38.6065C34.0415 38.7319 40.8709 39.1776 47.6676 43.5322C51.9888 46.3009 52.5012 48.2187 57.1691 50.8098" fill="url(#paint5_linear_182_867)"/>
<path d="M39.6206 51.0319C38.2586 49.7971 36.0585 48.1764 33.0686 47.5995C30.2154 47.0496 29.2714 47.9584 24.5245 47.7944C21.2167 47.6805 17.4716 47.5069 16.3947 45.3267C15.8533 44.2289 16.2001 43.0597 16.2309 42.967" stroke="#081F2D" stroke-miterlimit="10"/>
</g>
<defs>
<linearGradient id="paint0_linear_182_867" x1="106.996" y1="58.4744" x2="14.0306" y2="58.4744" gradientUnits="userSpaceOnUse">
<stop stop-color="#FF5607"/>
<stop offset="1" stop-color="#FFA700"/>
</linearGradient>
<linearGradient id="paint1_linear_182_867" x1="49.0238" y1="72.3863" x2="22.8856" y2="72.3863" gradientUnits="userSpaceOnUse">
<stop stop-color="#FF5607"/>
<stop offset="1" stop-color="#FFA700"/>
</linearGradient>
<linearGradient id="paint2_linear_182_867" x1="47.0374" y1="65.1205" x2="21.5337" y2="65.1205" gradientUnits="userSpaceOnUse">
<stop stop-color="#FF5607"/>
<stop offset="1" stop-color="#FFA700"/>
</linearGradient>
<linearGradient id="paint3_linear_182_867" x1="45.6839" y1="57.8251" x2="20.0731" y2="57.8251" gradientUnits="userSpaceOnUse">
<stop stop-color="#FF5607"/>
<stop offset="1" stop-color="#FFA700"/>
</linearGradient>
<linearGradient id="paint4_linear_182_867" x1="46.7268" y1="50.0384" x2="17.8592" y2="50.0384" gradientUnits="userSpaceOnUse">
<stop stop-color="#FF5607"/>
<stop offset="1" stop-color="#FFA700"/>
</linearGradient>
<linearGradient id="paint5_linear_182_867" x1="86.4654" y1="44.7927" x2="26.0516" y2="44.7927" gradientUnits="userSpaceOnUse">
<stop stop-color="#FF5607"/>
<stop offset="1" stop-color="#FFA700"/>
</linearGradient>
<clipPath id="clip0_182_867">
<rect width="80" height="93" fill="white"/>
</clipPath>
</defs>
</svg>
