<svg width="59" height="40" viewBox="0 0 59 40" fill="none" xmlns="http://www.w3.org/2000/svg">
<path d="M58.7982 11.9987L57.234 12.2728C54.046 12.8317 51.08 13.6844 48.3806 14.688V6.0407L47.5474 6.41988C45.6545 7.27975 43.8593 8.17826 42.1485 9.1253L42.0907 0.0655911L41.1847 0.651422C36.7771 3.49881 32.7354 6.73435 29.1264 10.2961C25.6506 6.97156 21.7324 3.7432 17.4305 0.666696L16.4979 0V9.39036C14.6343 8.33101 12.7236 7.36601 10.773 6.50344L9.94064 6.13505L9.97973 14.1758C7.12482 13.1839 4.25038 12.5361 1.40169 12.2431L0 12.0994L11.2206 26.2851L11.1709 15.901C13.0993 16.662 14.8839 17.5309 16.4987 18.4267V27.4163L16.6151 27.5754C19.9141 32.0679 28.5934 39.3755 28.9612 39.6846L29.3369 40L29.7144 39.6864C30.0822 39.3809 38.7677 32.1488 42.0694 27.481L42.2639 27.145L42.2106 18.7753C43.7278 17.9685 45.396 17.1706 47.1992 16.432V26.3291L58.7982 11.9987ZM48.3806 15.9648C50.6767 15.0896 53.1746 14.3223 55.8447 13.7589L48.3806 22.9795V15.9648ZM2.70834 13.6107C5.28699 13.9863 7.72441 14.6395 9.98417 15.4535L10.0197 22.8537L2.70834 13.6107ZM40.9138 2.25347L40.9253 9.81805C38.2845 11.3509 35.8453 13.0132 33.5518 14.8479C33.0526 14.2926 32.5391 13.7383 32.0115 13.1848C31.3506 12.4911 30.6684 11.802 29.9703 11.1155C33.2631 7.86738 36.9014 4.92295 40.9138 2.25347ZM21.0369 19.8266C19.9319 19.0727 18.8109 18.3701 17.6793 17.7196V11.474C19.8724 12.8155 21.9936 14.2926 24.0295 15.8974C22.9938 17.1652 21.9954 18.4752 21.0369 19.8266ZM24.9471 16.6324C26.101 17.5749 27.2264 18.5588 28.3207 19.5813C27.2637 20.6595 26.2324 21.7907 25.2207 22.9804C24.2844 22.2014 23.2079 21.3603 22.0051 20.5014C22.9467 19.1725 23.9265 17.8822 24.9471 16.6324ZM32.6395 15.5928C31.4439 16.5901 30.2883 17.636 29.1628 18.7403C28.0427 17.6917 26.8906 16.6836 25.7092 15.7177C26.8071 14.4193 27.9503 13.1632 29.1397 11.9484C30.3718 13.156 31.5389 14.3708 32.6395 15.5928ZM32.461 23.807C30.8772 25.0928 29.7828 26.1323 29.217 26.6948C28.6725 26.118 27.6235 25.055 26.1258 23.7513C27.1234 22.5796 28.1413 21.4646 29.1833 20.4025C30.3122 21.496 31.4048 22.6308 32.461 23.807ZM25.3592 24.6678C27.5284 26.56 28.7427 27.9357 28.7613 27.9563L29.1912 28.4478L29.6354 27.9689C29.6531 27.9491 30.9225 26.5915 33.2515 24.7028C33.9932 25.5582 34.7154 26.4342 35.4171 27.3292L29.3751 33.1075L23.2398 27.3705C23.9389 26.4369 24.6442 25.5366 25.3592 24.6678ZM30.0253 19.5624C31.1277 18.4833 32.2611 17.4608 33.431 16.4859C34.6319 17.8633 35.7476 19.247 36.7735 20.6326C36.6634 20.7062 36.555 20.779 36.4484 20.8509C35.3097 21.6218 34.289 22.3703 33.3937 23.0657C32.3091 21.8554 31.1854 20.6874 30.0253 19.5624ZM34.345 15.7419C36.4058 14.0986 38.5865 12.5963 40.9289 11.2027L40.9395 18.1068C39.7874 18.7412 38.7268 19.3755 37.7657 19.9874C36.7184 18.5714 35.577 17.1553 34.345 15.7419ZM17.6793 2.31726C21.5912 5.17094 25.1416 8.12256 28.2941 11.1308C27.6776 11.7597 27.0736 12.3968 26.4838 13.0446C25.9091 13.6772 25.345 14.3232 24.7908 14.9791C22.5186 13.1866 20.1424 11.5486 17.6793 10.0795V2.31726ZM12.8693 15.3008C12.3017 15.0564 11.7323 14.8246 11.162 14.6071L11.13 7.9752C12.9581 8.81621 14.7489 9.74886 16.4961 10.7669V17.061C15.296 16.414 14.0853 15.8255 12.8693 15.3008ZM20.3565 20.8033C19.4238 22.1645 18.5302 23.5626 17.6801 24.9957V19.1033C18.6439 19.6747 19.5393 20.248 20.3565 20.8033ZM29.3396 38.4447C27.6563 37.0071 20.7731 31.0463 17.7956 27.171C18.9024 25.1979 20.0785 23.302 21.3247 21.4798C22.491 22.3137 23.5401 23.134 24.455 23.8968C23.6165 24.9167 22.7904 25.9778 21.9723 27.0848L21.6534 27.5161L29.384 34.7455L37.0125 27.4505L36.682 27.0219C35.8764 25.9769 35.0432 24.9571 34.1842 23.9642C35.0458 23.2957 36.0229 22.5796 37.1066 21.8464C37.2265 21.7647 37.35 21.682 37.4744 21.5993C38.7713 23.4269 39.9127 25.2581 40.8889 27.0839C37.9247 31.0868 31.0264 37.0169 29.3396 38.4447ZM40.9493 24.772C40.1996 23.5024 39.3717 22.2292 38.4666 20.9542C39.2296 20.4699 40.0557 19.9712 40.9413 19.4708L40.9493 24.772ZM42.2 17.432L42.1556 10.4892C43.7571 9.58264 45.4333 8.72097 47.1974 7.89613V15.1444C45.3995 15.8614 43.7287 16.6396 42.2 17.432Z" fill="#BA8D5B"/>
</svg>
